<?xml version="1.0" encoding="UTF-8"?>
<svg xmlns="http://www.w3.org/2000/svg" viewBox="0 0 256 256" width="256" height="256">
<path d="M241.99 14.01C241.99 90 241.99 165.99 241.99 241.97C165.99 241.97 90 241.97 14 241.97C14 165.99 14 90 14 14.01C90 14.01 165.99 14.01 241.99 14.01ZM157.5 36.36C155.38 38.2 154.88 41.45 153.76 43.91C150.72 50.56 147.12 57.45 145.1 64.5C147.17 66.77 153.51 68.22 156.52 70.31C161.77 73.94 164.58 79.06 168.5 83.84C175.2 85.27 177.52 86.38 183.5 89.35C184.68 86.94 184 83.15 184 80.5C184.01 73.72 184.01 66.94 184.01 60.17C184.01 58.01 184.97 52.6 183.61 50.9C181.81 48.65 177.11 47.23 174.57 45.91C168.87 42.94 163.04 39.66 157.5 36.36ZM100.5 36.86C97.64 39.41 96.9 45.34 95.78 48.92C93.16 57.32 90.35 65.87 87.23 74.07C86.19 76.8 85.89 81.51 83.86 83.69C82.24 85.43 73.79 87.46 71.23 88.11C63.66 90.03 56.41 93.55 48.92 95.78C45.32 96.86 39.35 97.69 36.75 100.5C38.55 102.92 45.48 110.75 48.03 111.8C50.22 112.7 53.82 112.01 56.17 112.01C59.48 112.01 63.51 112.63 66.74 111.86C69.42 111.23 71.89 109.25 74.69 108.51C76.36 108.07 78.3 108.34 79.83 107.65C82.97 91.42 87.67 87.22 103.69 83.83C105.54 80.87 110.77 75.26 111.74 73.21C112.97 70.62 112.02 65.68 112.02 62.83C112.02 58.52 113.15 52.37 111.88 48.25C111.2 46.03 102.66 38.29 100.5 36.86ZM159.25 84.5C151.07 70.16 129.69 68.48 117.89 78.72C115.99 80.36 113.84 82.2 112.74 84.5C116.06 86.83 119.38 89.17 122.7 91.5C120.25 92.88 115.62 91.99 112.83 91.99C109.09 92 104.43 91.26 100.8 92.22C93.82 94.06 86.8 100.94 88.17 108.76C91.51 110.3 96.43 112.28 98.5 115.57C93.57 117.93 82.22 114.47 76.51 116.28C61.92 120.89 58.87 141.46 73.93 146.87C79.3 148.8 85.51 148 91.17 148C93.32 148 96.56 147.39 98.44 148.5C95.2 151.57 91.8 152.9 88.17 155.2C86.91 162.8 93.73 170.17 100.75 171.81C104.36 172.66 108.8 172 112.5 172C115.34 172 120 171.12 122.5 172.5C119.26 174.83 116.02 177.17 112.78 179.5C121.64 196.33 150.2 195.82 159.23 179.5C155.99 177.16 152.74 174.83 149.5 172.49C152 171.13 156.66 172 159.5 172C163.16 172.01 167.61 172.67 171.19 171.79C178.21 170.04 185.06 162.94 183.83 155.22C180.15 152.97 176.76 151.65 173.55 148.5C177.5 146.12 190.29 149.42 195.49 147.71C211.94 142.3 212.08 121.64 195.49 116.28C190.1 114.53 177.59 117.93 173.32 115.5C176.55 112.53 179.9 110.6 183.83 108.77C185.12 101.04 178.26 94.34 171.49 92.28C167.86 91.17 162.93 92 159.17 91.99C156.33 91.99 151.73 92.87 149.23 91.5C152.57 89.17 155.91 86.83 159.25 84.5ZM153.26 119.01C154.78 119.01 156.31 119.01 157.83 119.01C158.29 121.26 158.79 132.92 157.79 134.63C155.02 139.35 148.39 141.91 145.93 146.83C146.46 147.58 146.98 148.33 147.5 149.08C149.5 147.7 151.5 146.32 153.5 144.95C154.36 145.8 155.22 146.65 156.08 147.5C151.89 151.93 147.69 156.36 143.5 160.79C142.35 159.7 141.19 158.6 140.04 157.5C141.37 155.94 142.7 154.39 144.03 152.83C143.41 152.22 142.79 151.6 142.17 150.99C136.9 151.79 136.99 155.36 130.5 150.91C129.69 151.44 128.87 151.97 128.06 152.5C128.18 154.59 130.79 155.87 131.98 157.5C130.82 158.58 129.66 159.65 128.5 160.73C124.33 156.32 120.17 151.91 116 147.5C117.17 146.64 118.33 145.78 119.5 144.92C121.17 146.31 122.83 147.71 124.5 149.1C125.07 148.57 125.63 148.03 126.2 147.5C126 143.95 116.35 138.01 114.28 134.55C113.42 133.12 113.72 120.85 114.26 118.99C115.78 118.99 117.31 118.99 118.83 118.99C119.66 115.53 119.92 112.27 122.14 109.3C128.49 100.79 140.44 99.57 148.05 107.12C151.62 110.66 151.82 114.54 153.26 119.01ZM149.5 119.02C140.5 119.02 131.5 119.02 122.5 119.02C122.09 126.89 121.43 128.87 127.5 134.04C130.48 132.53 133.45 131.01 136.43 129.5C139.12 131.01 141.81 132.53 144.5 134.04C150 130.1 150.83 125.64 149.5 119.02ZM137.83 134.5C137.38 132.78 135.46 131.99 134.5 133.85C134.83 134.54 135.17 135.23 135.5 135.91C136.28 135.44 137.05 134.97 137.83 134.5ZM129.5 136.12C128.57 137.06 128.33 137.67 128.97 138.83C130.42 139.46 131.49 139.12 131.83 137.52C131.24 136.44 130.71 136.12 129.5 136.12ZM142.5 136.09C140.93 136.15 140.3 136.95 140.49 138.5C141.54 139.3 142.46 139.3 143.51 138.5C143.18 137.7 142.84 136.89 142.5 136.09ZM136.5 139.32C135.8 139.71 135.11 140.11 134.41 140.5C134.5 141.9 135.13 142.46 136.5 142.68C136.91 141.95 137.33 141.23 137.74 140.5C137.33 140.11 136.91 139.71 136.5 139.32ZM131.83 144.32C131.25 143.01 130.53 142.91 129.18 143.17C128.92 143.61 128.66 144.06 128.4 144.5C128.66 144.94 128.92 145.39 129.18 145.83C130.61 146.12 131.59 145.9 131.83 144.32ZM142.83 143.11C141.33 142.89 140.93 143.21 140.23 144.5C141.2 146.46 142.79 146.44 143.78 144.5C143.46 144.04 143.15 143.58 142.83 143.11ZM136.5 146.32C135.82 146.71 135.13 147.11 134.45 147.5C134.92 149.72 137.32 149.75 137.72 147.5C137.32 147.11 136.91 146.71 136.5 146.32ZM79.61 156.17C74.73 155.27 70.63 154.37 66.32 151.83C64.61 150.82 62.71 147.32 60.81 147.03C58.68 146.7 55.39 148.77 53.51 149.69C49.22 151.79 39.15 154.06 36.37 157.5C40.29 164.1 43.7 171 47.56 177.6C48.55 179.29 49.32 182.66 51.09 183.73C52.92 184.84 61.63 184.03 64.17 184.02C73.72 183.99 83.28 183.99 92.83 184.01C96.52 184.01 102.13 185.05 105.5 183.52C104.89 182.4 104.28 181.28 103.67 180.17C94.55 178.27 86.22 175.36 82.17 166.01C80.82 162.91 80.97 159.01 79.61 156.17ZM188.5 168.29C182.77 176.54 177.74 177.92 168.37 180.17C167.28 181.94 166.2 183.72 165.11 185.5C166.52 189.65 172.58 193.43 175.6 196.57C179.23 200.35 187.99 210.56 192.02 212.81C196.2 215.13 203.95 215.99 208.74 217.14C211.73 217.85 216.91 220.25 219.78 219.5C219.38 214.91 217.48 210 216.27 205.51C215.12 201.28 214.92 195.93 212.79 192.05C210.62 188.08 202.63 181.5 199.14 178.03C197.09 175.99 190.91 168.53 188.5 168.29Z" fill="#190301" fill-rule="evenodd" stroke="#190301" stroke-width="0.25" stroke-linejoin="round"/>
<path d="M0.08 0.08C85.36 0.08 170.64 0.08 255.92 0.08C255.92 85.36 255.92 170.64 255.92 255.92C170.64 255.92 85.36 255.92 0.08 255.92C0.08 170.64 0.08 85.36 0.08 0.08ZM241.99 14.01C165.99 14.01 90 14.01 14 14.01C14 90 14 165.99 14 241.97C90 241.97 165.99 241.97 241.99 241.97C241.99 165.99 241.99 90 241.99 14.01ZM157.5 36.36C163.04 39.66 168.87 42.94 174.57 45.91C177.11 47.23 181.81 48.65 183.61 50.9C184.97 52.6 184.01 58.01 184.01 60.17C184.01 66.94 184.01 73.72 184 80.5C184 83.15 184.68 86.94 183.5 89.35C177.52 86.38 175.2 85.27 168.5 83.84C164.58 79.06 161.77 73.94 156.52 70.31C153.51 68.22 147.17 66.77 145.1 64.5C147.12 57.45 150.72 50.56 153.76 43.91C154.88 41.45 155.38 38.2 157.5 36.36ZM100.5 36.86C102.66 38.29 111.2 46.03 111.88 48.25C113.15 52.37 112.02 58.52 112.02 62.83C112.02 65.68 112.97 70.62 111.74 73.21C110.77 75.26 105.54 80.87 103.69 83.83C87.67 87.22 82.97 91.42 79.83 107.65C78.3 108.34 76.36 108.07 74.69 108.51C71.89 109.25 69.42 111.23 66.74 111.86C63.51 112.63 59.48 112.01 56.17 112.01C53.82 112.01 50.22 112.7 48.03 111.8C45.48 110.75 38.55 102.92 36.75 100.5C39.35 97.69 45.32 96.86 48.92 95.78C56.41 93.55 63.66 90.03 71.23 88.11C73.79 87.46 82.24 85.43 83.86 83.69C85.89 81.51 86.19 76.8 87.23 74.07C90.35 65.87 93.16 57.32 95.78 48.92C96.9 45.34 97.64 39.41 100.5 36.86ZM79.61 156.17C80.97 159.01 80.82 162.91 82.17 166.01C86.22 175.36 94.55 178.27 103.67 180.17C104.28 181.28 104.89 182.4 105.5 183.52C102.13 185.05 96.52 184.01 92.83 184.01C83.28 183.99 73.72 183.99 64.17 184.02C61.63 184.03 52.92 184.84 51.09 183.73C49.32 182.66 48.55 179.29 47.56 177.6C43.7 171 40.29 164.1 36.37 157.5C39.15 154.06 49.22 151.79 53.51 149.69C55.39 148.77 58.68 146.7 60.81 147.03C62.71 147.32 64.61 150.82 66.32 151.83C70.63 154.37 74.73 155.27 79.61 156.17ZM188.5 168.29C190.91 168.53 197.09 175.99 199.14 178.03C202.63 181.5 210.62 188.08 212.79 192.05C214.92 195.93 215.12 201.28 216.27 205.51C217.48 210 219.38 214.91 219.78 219.5C216.91 220.25 211.73 217.85 208.74 217.14C203.95 215.99 196.2 215.13 192.02 212.81C187.99 210.56 179.23 200.35 175.6 196.57C172.58 193.43 166.52 189.65 165.11 185.5C166.2 183.72 167.28 181.94 168.37 180.17C177.74 177.92 182.77 176.54 188.5 168.29Z" fill="#dc6455" fill-rule="evenodd" stroke="#dc6455" stroke-width="0.25" stroke-linejoin="round"/>
<path d="M159.25 84.5C155.91 86.83 152.57 89.17 149.23 91.5C151.73 92.87 156.33 91.99 159.17 91.99C162.93 92 167.86 91.17 171.49 92.28C178.26 94.34 185.12 101.04 183.83 108.77C179.9 110.6 176.55 112.53 173.32 115.5C177.59 117.93 190.1 114.53 195.49 116.28C212.08 121.64 211.94 142.3 195.49 147.71C190.29 149.42 177.5 146.12 173.55 148.5C176.76 151.65 180.15 152.97 183.83 155.22C185.06 162.94 178.21 170.04 171.19 171.79C167.61 172.67 163.16 172.01 159.5 172C156.66 172 152 171.13 149.5 172.49C152.74 174.83 155.99 177.16 159.23 179.5C150.2 195.82 121.64 196.33 112.78 179.5C116.02 177.17 119.26 174.83 122.5 172.5C120 171.12 115.34 172 112.5 172C108.8 172 104.36 172.66 100.75 171.81C93.73 170.17 86.91 162.8 88.17 155.2C91.8 152.9 95.2 151.57 98.44 148.5C96.56 147.39 93.32 148 91.17 148C85.51 148 79.3 148.8 73.93 146.87C58.87 141.46 61.92 120.89 76.51 116.28C82.22 114.47 93.57 117.93 98.5 115.57C96.43 112.28 91.51 110.3 88.17 108.76C86.8 100.94 93.82 94.06 100.8 92.22C104.43 91.26 109.09 92 112.83 91.99C115.62 91.99 120.25 92.88 122.7 91.5C119.38 89.17 116.06 86.83 112.74 84.5C113.84 82.2 115.99 80.36 117.89 78.72C129.69 68.48 151.07 70.16 159.25 84.5ZM153.26 119.01C151.82 114.54 151.62 110.66 148.05 107.12C140.44 99.57 128.49 100.79 122.14 109.3C119.92 112.27 119.66 115.53 118.83 118.99C117.31 118.99 115.78 118.99 114.26 118.99C113.72 120.85 113.42 133.12 114.28 134.55C116.35 138.01 126 143.95 126.2 147.5C125.63 148.03 125.07 148.57 124.5 149.1C122.83 147.71 121.17 146.31 119.5 144.92C118.33 145.78 117.17 146.64 116 147.5C120.17 151.91 124.33 156.32 128.5 160.73C129.66 159.65 130.82 158.58 131.98 157.5C130.79 155.87 128.18 154.59 128.06 152.5C128.87 151.97 129.69 151.44 130.5 150.91C136.99 155.36 136.9 151.79 142.17 150.99C142.79 151.6 143.41 152.22 144.03 152.83C142.7 154.39 141.37 155.94 140.04 157.5C141.19 158.6 142.35 159.7 143.5 160.79C147.69 156.36 151.89 151.93 156.08 147.5C155.22 146.65 154.36 145.8 153.5 144.95C151.5 146.32 149.5 147.7 147.5 149.08C146.98 148.33 146.46 147.58 145.93 146.83C148.39 141.91 155.02 139.35 157.79 134.63C158.79 132.92 158.29 121.26 157.83 119.01C156.31 119.01 154.78 119.01 153.26 119.01ZM149.5 119.02C150.83 125.64 150 130.1 144.5 134.04C141.81 132.53 139.12 131.01 136.43 129.5C133.45 131.01 130.48 132.53 127.5 134.04C121.43 128.87 122.09 126.89 122.5 119.02C131.5 119.02 140.5 119.02 149.5 119.02ZM137.83 134.5C137.05 134.97 136.28 135.44 135.5 135.91C135.17 135.23 134.83 134.54 134.5 133.85C135.46 131.99 137.38 132.78 137.83 134.5ZM129.5 136.12C130.71 136.12 131.24 136.44 131.83 137.52C131.49 139.12 130.42 139.46 128.97 138.83C128.33 137.67 128.57 137.06 129.5 136.12ZM142.5 136.09C142.84 136.89 143.18 137.7 143.51 138.5C142.46 139.3 141.54 139.3 140.49 138.5C140.3 136.95 140.93 136.15 142.5 136.09ZM136.5 139.32C136.91 139.71 137.33 140.11 137.74 140.5C137.33 141.23 136.91 141.95 136.5 142.68C135.13 142.46 134.5 141.9 134.41 140.5C135.11 140.11 135.8 139.71 136.5 139.32ZM131.83 144.32C131.59 145.9 130.61 146.12 129.18 145.83C128.92 145.39 128.66 144.94 128.4 144.5C128.66 144.06 128.92 143.61 129.18 143.17C130.53 142.91 131.25 143.01 131.83 144.32ZM142.83 143.11C143.15 143.58 143.46 144.04 143.78 144.5C142.79 146.44 141.2 146.46 140.23 144.5C140.93 143.21 141.33 142.89 142.83 143.11ZM136.5 146.32C136.91 146.71 137.32 147.11 137.72 147.5C137.32 149.75 134.92 149.72 134.45 147.5C135.13 147.11 135.82 146.71 136.5 146.32Z" fill="#fefedf" fill-rule="evenodd" stroke="#fefedf" stroke-width="0.25" stroke-linejoin="round"/>
</svg>